<svg preserveAspectRatio="xMidYMid meet" viewBox="837.1560926485397 270.08 148.527693856999 158.672" xmlns="http://www.w3.org/2000/svg" version="1.0" style="max-height: 500px" width="148.527693856999" height="158.672">

<g stroke="none" fill="#000000" transform="translate(0.000000,844.000000) scale(0.100000,-0.100000)">
<path style="visibility: visible;" data-index="0" d="M8975 5596 c-282 -65 -484 -264 -536 -527 -17 -85 -6 -269 20 -342&#10;44 -126 117 -232 211 -311 55 -46 205 -119 280 -137 79 -19 261 -17 340 4 232&#10;61 411 231 482 457 19 61 23 97 23 195 0 98 -4 134 -23 195 -68 219 -231 379&#10;-457 450 -89 28 -255 36 -340 16z m217 -267 c81 -17 139 -52 200 -118 79 -85&#10;102 -147 102 -276 0 -125 -23 -190 -96 -270 -63 -70 -114 -100 -203 -120 -224&#10;-52 -435 100 -464 334 -17 135 22 255 111 344 98 98 218 134 350 106z"/>
<path style="visibility: visible;" data-index="1" d="M8925 5181 c-58 -30 -89 -81 -89 -147 0 -62 7 -73 32 -51 64 58 174&#10;61 253 6 24 -17 28 -17 33 -3 3 9 6 31 6 50 0 120 -128 199 -235 145z"/>
<path style="visibility: visible;" data-index="2" d="M9168 5193 c-23 -6 -22 -9 2 -40 47 -60 49 -162 4 -229 -14 -20 -23&#10;-39 -20 -41 3 -3 24 -7 48 -10 61 -7 124 29 156 88 66 124 -52 268 -190 232z"/>
<path style="visibility: visible;" data-index="3" d="M8922 4963 c-101 -50 -117 -183 -32 -264 41 -39 87 -53 138 -43 38 8&#10;38 8 13 43 -27 37 -44 108 -36 150 4 20 17 55 30 77 14 23 21 44 18 48 -12 12&#10;-99 5 -131 -11z"/>
<path style="visibility: visible;" data-index="4" d="M9056 4864 c-31 -80 37 -189 131 -209 104 -22 211 89 188 196 -4 16&#10;-8 29 -10 29 -1 0 -22 -11 -46 -24 -24 -13 -58 -27 -76 -31 -37 -8 -108 10&#10;-144 36 -33 23 -35 23 -43 3z"/>
<path style="visibility: visible;" data-index="5" d="M1900 4935 l0 -645 343 0 c360 0 400 4 503 49 108 48 184 161 192&#10;287 9 145 -48 249 -167 306 -39 18 -70 35 -70 38 0 3 19 19 42 35 23 17 55 52&#10;72 79 28 47 30 55 30 150 0 83 -4 110 -22 148 -40 88 -138 163 -245 188 -24 5&#10;-186 10 -360 10 l-318 0 0 -645z m617 367 c41 -29 58 -85 43 -141 -7 -26 -22&#10;-48 -43 -63 -29 -21 -44 -23 -177 -26 l-146 -3 -2 131 -1 131 147 -3 c135 -3&#10;150 -5 179 -26z m64 -510 c94 -58 88 -182 -11 -232 -35 -18 -59 -20 -209 -20&#10;l-170 0 2 141 2 141 175 -4 c161 -3 178 -5 211 -26z"/>
<path style="visibility: visible;" data-index="6" d="M3445 5568 c-2 -7 -104 -294 -225 -637 -121 -344 -220 -628 -220&#10;-633 0 -4 67 -8 148 -8 l148 0 35 108 35 107 256 3 256 2 37 -110 37 -110 157&#10;0 158 0 -226 643 -226 642 -183 3 c-141 2 -183 0 -187 -10z m341 -780 c5 -17&#10;-7 -18 -165 -18 l-169 0 79 238 c43 130 82 244 85 252 5 11 99 -250 170 -472z"/>
<path style="visibility: visible;" data-index="7" d="M4360 4935 l0 -645 145 0 145 0 0 645 0 645 -145 0 -145 0 0 -645z"/>
<path style="visibility: visible;" data-index="8" d="M4810 4936 l0 -646 343 0 c270 0 355 3 400 15 132 34 209 92 259 193&#10;30 61 33 75 33 157 0 73 -5 99 -23 136 -31 64 -93 123 -157 151 -30 12 -54 26&#10;-52 29 1 4 22 22 46 40 117 89 135 285 40 425 -31 45 -80 82 -154 116 -49 22&#10;-60 23 -392 26 l-343 3 0 -645z m595 378 c19 -9 41 -27 50 -41 22 -32 22 -100&#10;2 -139 -27 -53 -67 -64 -221 -64 l-136 0 0 130 0 130 136 0 c103 0 144 -4 169&#10;-16z m86 -522 c60 -37 82 -130 45 -188 -35 -52 -84 -64 -268 -64 l-168 0 0&#10;141 0 141 178 -4 c163 -3 180 -5 213 -26z"/>
<path style="visibility: visible;" data-index="9" d="M6355 5568 c-3 -7 -106 -298 -229 -645 l-223 -633 151 0 152 0 34&#10;110 33 110 258 0 257 0 37 -110 37 -110 155 0 155 0 -6 23 c-3 12 -104 301&#10;-224 642 l-219 620 -182 3 c-140 2 -183 0 -186 -10z m266 -560 l77 -238 -168&#10;0 -168 0 79 238 c43 130 82 244 85 252 8 19 -1 43 95 -252z"/>
<path style="visibility: visible;" data-index="10" d="M7270 4935 l0 -645 145 0 145 0 2 273 3 272 217 -272 218 -273 190 0&#10;190 0 -227 278 c-124 152 -243 298 -264 323 l-39 46 255 319 254 319 -162 3&#10;c-89 1 -166 1 -172 -2 -6 -2 -109 -133 -230 -290 -120 -158 -222 -289 -227&#10;-292 -4 -3 -8 128 -8 290 l0 296 -145 0 -145 0 0 -645z"/>
<path style="visibility: visible;" data-index="11" d="M9870 5571 c0 -9 410 -1199 432 -1254 l11 -27 180 2 180 3 223 640&#10;222 640 -146 3 c-80 1 -149 -1 -153 -5 -4 -5 -76 -219 -159 -478 -84 -258&#10;-156 -473 -159 -478 -4 -4 -17 26 -30 65 -13 40 -83 259 -157 486 l-135 412&#10;-154 0 c-85 0 -155 -4 -155 -9z"/>
<path style="visibility: visible;" data-index="12" d="M11210 4935 l0 -645 150 0 150 0 2 270 3 270 215 -270 214 -270 189&#10;0 c150 0 187 3 180 13 -5 6 -121 149 -258 316 -136 167 -248 309 -249 316 0 7&#10;109 151 244 321 135 169 247 311 248 316 2 4 -72 8 -165 8 l-168 0 -225 -295&#10;-225 -295 -3 295 -2 295 -150 0 -150 0 0 -645z"/>
<path style="visibility: visible;" data-index="13" d="M12400 4935 l0 -645 145 0 145 0 0 645 0 645 -145 0 -145 0 0 -645z"/>
<path style="visibility: visible;" data-index="14" d="M12850 4936 l0 -646 150 0 150 0 2 214 3 214 185 -214 185 -214 188&#10;0 c103 0 187 2 187 5 0 2 -90 102 -199 222 l-200 217 59 22 c173 63 278 195&#10;288 364 11 196 -73 346 -236 424 l-67 31 -347 3 -348 3 0 -645z m617 355 c124&#10;-63 117 -244 -11 -302 -33 -15 -66 -19 -173 -19 l-133 0 0 176 0 177 138 -5&#10;c114 -4 144 -9 179 -27z"/>
<path style="visibility: visible;" data-index="15" d="M6914 3917 c-6 -15 138 -413 155 -430 20 -20 37 13 97 176 31 86 60&#10;157 63 157 3 0 33 -76 67 -168 49 -135 64 -167 79 -167 15 0 33 39 96 210 67&#10;182 76 212 63 225 -10 10 -17 11 -25 3 -6 -6 -37 -81 -69 -167 -32 -87 -60&#10;-160 -63 -162 -3 -3 -17 28 -32 68 -89 235 -101 263 -117 266 -12 2 -30 -36&#10;-79 -169 -43 -116 -66 -167 -72 -158 -5 8 -34 84 -66 169 -40 107 -63 156 -74&#10;158 -10 2 -20 -3 -23 -11z"/>
<path style="visibility: visible;" data-index="16" d="M4482 3703 c3 -186 5 -218 18 -218 12 0 16 18 18 88 1 48 5 87 8 87&#10;3 0 49 -41 102 -90 53 -50 101 -89 106 -87 6 2 13 12 15 22 2 13 -26 46 -94&#10;109 l-97 91 96 88 c57 53 96 96 96 108 0 37 -35 18 -130 -71 l-95 -89 -3 89&#10;c-2 82 -4 90 -23 90 -19 0 -19 -6 -17 -217z"/>
<path style="visibility: visible;" data-index="17" d="M5240 3705 c0 -185 2 -216 15 -222 9 -3 19 -2 23 2 4 3 9 77 12 163&#10;l5 157 99 -159 c55 -87 106 -161 114 -163 8 -3 18 0 23 8 5 8 8 106 6 219 -2&#10;203 -2 205 -24 208 -22 3 -23 2 -25 -159 l-3 -163 -101 159 c-74 118 -106 161&#10;-122 163 l-22 3 0 -216z"/>
<path style="visibility: visible;" data-index="18" d="M6151 3898 c-77 -38 -130 -138 -117 -221 19 -116 105 -191 221 -192&#10;224 -1 302 302 106 409 -63 34 -146 36 -210 4z m162 -32 c131 -55 150 -233 33&#10;-305 -51 -32 -98 -37 -151 -17 -142 55 -151 245 -15 314 51 25 87 28 133 8z"/>
<path style="visibility: visible;" data-index="19" d="M7994 3907 c-2 -7 -3 -105 -2 -217 l3 -205 95 0 c88 0 95 1 95 20 0&#10;18 -8 20 -72 23 l-73 3 0 194 c0 189 -1 195 -20 195 -11 0 -23 -6 -26 -13z"/>
<path style="visibility: visible;" data-index="20" d="M8654 3907 c-2 -7 -3 -105 -2 -217 l3 -205 115 0 c112 0 115 1 118&#10;23 3 21 1 22 -92 22 l-96 0 0 75 0 75 74 0 c52 0 77 4 86 15 21 26 0 35 -81&#10;35 l-79 0 0 75 0 75 95 0 c88 0 95 1 95 20 0 19 -7 20 -115 20 -85 0 -117 -3&#10;-121 -13z"/>
<path style="visibility: visible;" data-index="21" d="M9374 3907 c-2 -7 -3 -105 -2 -217 l3 -205 82 -3 c109 -4 159 10 205&#10;59 54 56 76 132 60 207 -14 68 -54 128 -102 153 -43 23 -237 28 -246 6z m213&#10;-44 c69 -32 108 -132 83 -209 -30 -90 -81 -124 -184 -124 l-66 0 0 175 0 175&#10;66 0 c41 0 79 -6 101 -17z"/>
<path style="visibility: visible;" data-index="22" d="M10334 3901 c-49 -22 -97 -78 -113 -130 -61 -205 176 -372 347 -244&#10;l33 25 -3 86 -3 87 -84 3 c-87 3 -106 -3 -95 -31 5 -13 20 -17 70 -17 l64 0 0&#10;-54 c0 -61 -7 -70 -72 -87 -152 -41 -273 131 -185 262 26 39 98 79 142 79 29&#10;0 91 -26 127 -52 24 -17 47 4 32 30 -34 56 -178 80 -260 43z"/>
<path style="visibility: visible;" data-index="23" d="M11112 3703 l3 -218 115 0 c108 0 115 1 115 20 0 18 -8 20 -92 23&#10;l-93 3 0 74 0 75 73 0 c74 0 100 11 90 36 -4 10 -26 14 -84 14 l-79 0 0 75 0&#10;75 95 0 c88 0 95 1 95 20 0 19 -7 20 -120 20 l-120 0 2 -217z"/>
</g>
</svg>